<?xml version="1.0" encoding="utf-8"?>
<!-- Generator: Adobe Illustrator 19.0.0, SVG Export Plug-In . SVG Version: 6.00 Build 0)  -->
<svg version="1.1" id="Camada_1" xmlns="http://www.w3.org/2000/svg" xmlns:xlink="http://www.w3.org/1999/xlink" x="0px" y="0px"
	 viewBox="0 0 65 65" style="enable-background:new 0 0 65 65;" xml:space="preserve">
<style type="text/css">
	.st0{fill:#FFFFFF;}
</style>
<g id="XMLID_2_">
	<path id="XMLID_3_" class="st0" d="M0,0h13.6v35.5c0,2.7,1.2,4.1,3.5,4.1c0.6,0,1.2-0.1,1.9-0.3c0.7-0.2,1.3-0.4,1.9-0.7l1.7,9.5
		c-1.6,0.7-3.4,1.3-5.5,1.7c-2,0.4-3.9,0.6-5.8,0.6c-3.6,0-6.4-0.9-8.4-2.7C1,46,0,43.5,0,40.1V0z"/>
	<path id="XMLID_5_" class="st0" d="M40.1,49.8c-2.4,0-4.7-0.5-6.7-1.4c-2-0.9-3.8-2.2-5.2-3.8c-1.4-1.6-2.5-3.5-3.3-5.7
		c-0.8-2.2-1.2-4.5-1.2-7.1c0-2.7,0.4-5.2,1.3-7.4c0.9-2.3,2.1-4.2,3.6-5.9c1.5-1.6,3.4-2.9,5.5-3.9c2.1-0.9,4.5-1.4,7.1-1.4
		c2.7,0,5.1,0.5,7.1,1.5c2,1,3.7,2.5,4.9,4.5v-5.3H65v32.6c0,2.8-0.5,5.4-1.6,7.6c-1.1,2.3-2.6,4.2-4.6,5.8c-2,1.6-4.4,2.8-7.2,3.7
		c-2.8,0.9-5.9,1.3-9.4,1.3c-4,0-7.5-0.6-10.4-1.8c-3-1.2-5.6-2.9-7.9-5.1L31,51c1.4,1.2,3,2.3,5,3.1c1.9,0.8,4,1.3,6.2,1.3
		c1.2,0,2.4-0.2,3.5-0.5c1.1-0.3,2.1-0.8,3-1.5c0.9-0.7,1.5-1.6,2-2.8c0.5-1.1,0.7-2.5,0.7-4.1v-2.3c-1.1,1.9-2.7,3.3-4.7,4.2
		C44.7,49.3,42.5,49.8,40.1,49.8z M44.9,39.6c1.4,0,2.6-0.3,3.6-0.9c1-0.6,2-1.5,2.9-2.8v-6.4c-0.7-1.6-1.7-2.9-3-3.9
		c-1.3-1-2.7-1.4-4.1-1.4c-1,0-1.8,0.2-2.7,0.6c-0.8,0.4-1.6,1-2.2,1.7c-0.6,0.7-1.1,1.5-1.4,2.5c-0.3,1-0.5,2-0.5,3.1
		c0,2.2,0.7,4,2.1,5.4S42.8,39.6,44.9,39.6z"/>
</g>
</svg>
